<svg xmlns="http://www.w3.org/2000/svg" width="240" height="160" viewBox="0 0 240 160" role="img" aria-labelledby="title desc">
  <title id="title">Bounty Desk mark</title>
  <desc id="desc">A document, token, and shield representing token-gated bounty reviews.</desc>
  <rect width="240" height="160" rx="18" fill="#f6f8fb"/>
  <path d="M48 38h72l22 22v70H48z" fill="#fff" stroke="#234" stroke-width="5" stroke-linejoin="round"/>
  <path d="M120 38v25h22" fill="none" stroke="#234" stroke-width="5" stroke-linejoin="round"/>
  <path d="M67 78h52M67 96h46M67 114h32" stroke="#576678" stroke-width="6" stroke-linecap="round"/>
  <circle cx="162" cy="97" r="34" fill="#ffe08a" stroke="#234" stroke-width="5"/>
  <path d="M149 98c6 8 21 8 27-1 5-8-1-17-14-17-12 0-19 10-13 18zm13-32v62" stroke="#234" stroke-width="5" stroke-linecap="round"/>
  <path d="M164 28l39 14v31c0 28-16 48-39 59-23-11-39-31-39-59V42z" fill="#dff5ef" stroke="#16775f" stroke-width="5" stroke-linejoin="round" opacity=".94"/>
  <path d="M146 72l13 13 29-32" fill="none" stroke="#16775f" stroke-width="8" stroke-linecap="round" stroke-linejoin="round"/>
</svg>
